<svg xmlns="http://www.w3.org/2000/svg" version="1.1" xlink="http://www.w3.org/1999/xlink" xmlns:svgjs="http://svgjs.com/svgjs" width="100%" height="100%" viewBox="5 12.575750350952148 89.99899291992188 74.85424041748047"><g fill="#ef8a07"><path d="M77.906 53.113c0-2.938.133-5.477 2.27-10.285 2.331-5.246 14.823-11.883 14.823-16.691 0-4.57-.39-7.414-2.714-7.691-1.18-.645-5.145 2.714-6.739 4.136-.421.38-2.086-3.101-2.218-3.316-.754-1.219-1.887-2.164-3.11-2.941-5.84-3.711-15.73-2.805-20.883 1.886-3.176 2.89-4.906 7.235-5.164 11.477-.02.285-.027.574-.027.86 0 3.171.203 4.847 1.023 7.03 1.465 3.911 5.477 7.942 9.844 8.18 3.043.168 6.227-.98 6.227-4.394 0-2.82-1.653-4.203-3.403-5.668-1.476-1.242-3.008-2.523-3.008-4.613l-.007-6.012c1.472 2.762 2.625 6.121 5.066 8.164 1.918 1.61 4.547 3.809 4.547 8.125 0 5.184-4.297 6.914-8.77 7.441-5.527.653-8.91-3.859-12.078-7.695-.043-.055-4.343.969-4.75 1.035-2.636.43-5.257.598-7.925.73-11.262.56-28.676-1.929-31.375-15.663-.907-4.61 3.629-9.426 4.992-10.81.808-.816.812-2.132.05-3.019-.824-.968-2.3-1.086-3.23-.218C9.55 14.825 5 20.54 5 27.739c0 8.625 5.075 14.016 7.602 16.164a4.335 4.335 0 0 1 1.54 2.968l1.671 21.715a8.556 8.556 0 0 1-.434 3.41l-1.113 3.274a8.48 8.48 0 0 0-.453 2.754v7.266c0 1.18.953 2.136 2.137 2.136h6.41s.574-1.457 0-2.136c-1.117-1.317-2.137-2.137-2.137-2.137v-2.137L31.495 70.88a2.139 2.139 0 0 1 1.426-.547h34.957c.89 0 1.688.555 2 1.387l3.809 10.16a8.547 8.547 0 0 0 8.004 5.547h4.761v-.238a4.272 4.272 0 0 0-1.886-3.551 178.696 178.696 0 0 1-3.989-2.754c-2.804-2.004-2.672-10.551-2.672-10.551l.004-17.22zm-3.203-27.645a3.202 3.202 0 1 1 6.405-.001 3.202 3.202 0 0 1-6.405.001"></path><path d="M26.633 81.02a6.41 6.41 0 0 0 6.41 6.41h6.41l.004-.258a3.955 3.955 0 0 0-4.273-4.015h-.004v-12.82l-8.547 8.547zm42.73-8.547h-8.547v6.723a6.411 6.411 0 0 0 3.54 5.73l1.913.957c1.418.711 4.067 1.364 3.094-.59-1.578-3.152-3.043-5.57 0-12.82"></path></g></svg>