<svg width="155" height="40" viewBox="0 0 155 40" fill="none" xmlns="http://www.w3.org/2000/svg">
<path d="M39.3451 21.6199C39.3451 20.0529 39.4169 18.6988 40.5702 16.1345C41.8282 13.3367 48.5697 9.79693 48.5697 7.23267C48.5697 4.79533 48.3592 3.27853 47.1051 3.1308C46.4682 2.7868 44.3285 4.57827 43.4682 5.33667C43.241 5.53933 42.3425 3.6828 42.2712 3.56813C41.8643 2.918 41.2529 2.414 40.5929 1.9996C37.4412 0.0204014 32.1039 0.503601 29.3229 3.00547C27.609 4.5468 26.6753 6.86413 26.5361 9.12653C26.5253 9.27853 26.5215 9.43267 26.5215 9.5852C26.5215 11.2764 26.6311 12.1703 27.0736 13.3345C27.8642 15.4204 30.0294 17.5703 32.3861 17.6972C34.0283 17.7868 35.7466 17.1745 35.7466 15.3537C35.7466 13.8497 34.8546 13.1121 33.9101 12.3308C33.1136 11.6684 32.2868 10.9852 32.2868 9.87053L32.283 6.66413C33.0774 8.1372 33.6997 9.92867 35.017 11.0183C36.0521 11.8769 37.4709 13.0497 37.4709 15.3516C37.4709 18.1164 35.1519 19.0391 32.738 19.3201C29.7552 19.6684 27.9295 17.262 26.2198 15.2161C26.1966 15.1868 23.8761 15.7329 23.6564 15.7681C22.2338 15.9975 20.8194 16.0871 19.3795 16.1575C13.3018 16.4561 3.90397 15.1287 2.4474 7.80387C1.95792 5.3452 4.40586 2.77667 5.14143 2.03853C5.57748 1.60333 5.57964 0.901467 5.16841 0.428401C4.72373 -0.0878659 3.92718 -0.150799 3.42528 0.312134C2.4555 1.1996 0 4.2476 0 8.08707C0 12.6871 2.73882 15.5623 4.10257 16.7079C4.34024 16.9042 4.53609 17.1452 4.67876 17.417C4.82143 17.6887 4.90807 17.9857 4.93366 18.2908L5.83545 29.8721C5.88267 30.4878 5.80299 31.1065 5.60123 31.6908L5.00058 33.4369C4.83756 33.9098 4.75495 34.4062 4.75611 34.9057V38.7809C4.75611 39.4103 5.27041 39.9201 5.90938 39.9201H9.36866C9.36866 39.9201 9.67843 39.1431 9.36866 38.7809C8.76585 38.0785 8.21539 37.6412 8.21539 37.6412V36.5015L14.2985 31.0956C14.51 30.9081 14.784 30.8042 15.0681 30.8039H33.9333C34.4136 30.8039 34.8443 31.0999 35.0127 31.5436L37.0683 36.9623C37.3979 37.8313 37.9881 38.5802 38.76 39.1089C39.5319 39.6375 40.4487 39.9208 41.3878 39.9207H43.9572V39.7937C43.9578 39.4198 43.8653 39.0514 43.6878 38.7211C43.5103 38.3908 43.2532 38.1087 42.9393 37.8999C42.2151 37.4199 41.4974 36.9303 40.7866 36.4311C39.2734 35.3623 39.3446 30.8039 39.3446 30.8039L39.3468 21.6199H39.3451ZM37.6166 6.87587C37.6166 6.65157 37.6612 6.42946 37.748 6.22222C37.8349 6.01499 37.9621 5.82668 38.1226 5.66805C38.2831 5.50942 38.4736 5.38358 38.6832 5.29772C38.8929 5.21185 39.1176 5.16764 39.3446 5.1676C39.803 5.16753 40.2426 5.34741 40.5668 5.66767C40.8909 5.98794 41.0731 6.42234 41.0732 6.87533C41.0732 7.32832 40.8912 7.76279 40.5672 8.08315C40.2431 8.40351 39.8035 8.58353 39.3451 8.5836C38.8868 8.58367 38.4471 8.40379 38.123 8.08353C37.7988 7.76327 37.6167 7.32886 37.6166 6.87587Z" fill="#EF8A07"/>
<path d="M11.6747 36.5036C11.6747 37.4103 12.0391 38.2798 12.6879 38.921C13.3366 39.5621 14.2165 39.9223 15.1339 39.9223H18.5932L18.5954 39.7847C18.6009 39.4901 18.5439 39.1977 18.4281 38.9262C18.3122 38.6548 18.1402 38.4103 17.9229 38.2086C17.7057 38.0069 17.4481 37.8523 17.1667 37.755C16.8854 37.6576 16.5865 37.6196 16.2894 37.6433H16.2872V30.806L11.6747 35.3644V36.5036ZM34.7347 31.9452H30.1222V35.5308C30.1224 36.1652 30.3012 36.787 30.6386 37.3267C30.976 37.8664 31.4587 38.3027 32.0326 38.5868L33.065 39.0972C33.8303 39.4764 35.2598 39.8247 34.7347 38.7825C33.8831 37.1015 33.0925 35.8119 34.7347 31.9452Z" fill="#EF8A07"/>
<path d="M57.8842 21.6401C57.8221 21.0013 57.5461 20.5047 57.0561 20.1504C56.5724 19.7903 55.8808 19.6102 54.9814 19.6102C54.386 19.6102 53.8898 19.6828 53.4928 19.828C53.0959 19.9732 52.7982 20.1736 52.5997 20.4292C52.4012 20.6789 52.2989 20.9664 52.2927 21.2917C52.2802 21.5588 52.3361 21.7941 52.4601 21.9973C52.5904 22.2006 52.7764 22.3807 53.0183 22.5375C53.2664 22.6885 53.5642 22.8221 53.9115 22.9383C54.2588 23.0544 54.6496 23.1561 55.0838 23.2432L56.7212 23.5917C57.664 23.7833 58.4951 24.0389 59.2146 24.3583C59.9403 24.6778 60.5481 25.0582 61.0381 25.4996C61.5343 25.941 61.9096 26.4492 62.1639 27.0242C62.4182 27.5992 62.5484 28.2439 62.5546 28.9583C62.5484 30.0851 62.2445 31.0521 61.6429 31.8595C61.0412 32.6668 60.176 33.2854 59.0471 33.7152C57.9245 34.1449 56.5692 34.3599 54.9814 34.3599C53.3874 34.3599 51.998 34.1362 50.8134 33.689C49.6287 33.2418 48.7076 32.5622 48.0502 31.6504C47.3927 30.7385 47.0547 29.5856 47.0361 28.1917H51.446C51.4832 28.7667 51.6476 29.2458 51.9391 29.6292C52.2306 30.0125 52.6307 30.3029 53.1393 30.5004C53.6541 30.6979 54.2495 30.7966 54.9256 30.7966C55.5458 30.7966 56.0731 30.7182 56.5072 30.5614C56.9476 30.4045 57.2856 30.1867 57.5213 29.908C57.757 29.6292 57.878 29.3097 57.8842 28.9496C57.878 28.6128 57.7663 28.3253 57.5492 28.0871C57.3322 27.8432 56.9972 27.6341 56.5444 27.4598C56.0979 27.2798 55.5272 27.1143 54.8326 26.9633L52.8416 26.5277C51.1917 26.1734 49.8923 25.6013 48.9433 24.8114C47.9944 24.0157 47.523 22.9412 47.5292 21.5879C47.523 20.4843 47.8393 19.5173 48.4781 18.6867C49.117 17.8562 50.0008 17.2086 51.1297 16.7439C52.2585 16.2793 53.5456 16.047 54.9907 16.047C56.4669 16.047 57.7477 16.2822 58.8331 16.7526C59.9248 17.2173 60.7714 17.8707 61.3731 18.7129C61.9747 19.555 62.2817 20.5308 62.2941 21.6401H57.8842Z" fill="black"/>
<path d="M81.0969 16.2909V34.1333H77.1893L69.6068 23.8356H69.4859V34.1333H64.8805V16.2909H68.8439L76.3427 26.5712H76.5008V16.2909H81.0969Z" fill="black"/>
<path d="M88.598 16.2909V34.1333H83.9926V16.2909H88.598Z" fill="black"/>
<path d="M91.4891 34.1333V16.2909H104.496V19.7932H96.0944V23.4523H103.668V26.9633H96.0944V34.1333H91.4891Z" fill="black"/>
<path d="M106.815 34.1333V16.2909H119.821V19.7932H111.42V23.4523H118.993V26.9633H111.42V34.1333H106.815Z" fill="black"/>
<path d="M122.14 34.1333V16.2909H135.426V19.7932H126.745V23.4523H134.747V26.9633H126.745V30.6311H135.426V34.1333H122.14Z" fill="black"/>
<path d="M138.31 34.1333V16.2909H146.181C147.607 16.2909 148.839 16.5319 149.874 17.014C150.916 17.4903 151.72 18.1756 152.284 19.0701C152.848 19.9587 153.131 21.0129 153.131 22.2326C153.131 23.4697 152.842 24.521 152.265 25.3864C151.689 26.246 150.87 26.9023 149.809 27.3553C148.749 27.8025 147.493 28.0261 146.041 28.0261H141.064V24.6284H145.185C145.88 24.6284 146.46 24.5442 146.925 24.3758C147.396 24.2015 147.753 23.9402 147.995 23.5917C148.237 23.2374 148.358 22.7843 148.358 22.2326C148.358 21.6808 148.237 21.2249 147.995 20.8648C147.753 20.4989 147.396 20.2259 146.925 20.0458C146.454 19.86 145.874 19.767 145.185 19.767H142.915V34.1333H138.31ZM149.037 25.9788L153.782 34.1333H148.758L144.106 25.9788H149.037Z" fill="black"/>
</svg>
